<svg width="251" height="64" viewBox="0 0 251 64" fill="none" xmlns="http://www.w3.org/2000/svg">
<path d="M98.0596 46.08C95.4938 46.08 93.1375 45.4778 90.9905 44.2735C88.8436 43.0691 87.1418 41.4065 85.8851 39.2858C84.6284 37.1389 84 34.7171 84 32.0204C84 29.3498 84.6284 26.9542 85.8851 24.8335C87.1418 22.6865 88.8436 21.0109 90.9905 19.8065C93.1375 18.6022 95.4938 18 98.0596 18C100.652 18 103.008 18.6022 105.129 19.8065C107.276 21.0109 108.964 22.6865 110.195 24.8335C111.452 26.9542 112.08 29.3498 112.08 32.0204C112.08 34.7171 111.452 37.1389 110.195 39.2858C108.964 41.4065 107.276 43.0691 105.129 44.2735C102.982 45.4778 100.625 46.08 98.0596 46.08ZM98.0596 41.0138C99.7091 41.0138 101.162 40.6473 102.419 39.9142C103.676 39.1549 104.657 38.1076 105.364 36.7724C106.071 35.4109 106.425 33.8269 106.425 32.0204C106.425 30.2138 106.071 28.6429 105.364 27.3076C104.657 25.9462 103.676 24.8989 102.419 24.1658C101.162 23.4327 99.7091 23.0662 98.0596 23.0662C96.4102 23.0662 94.944 23.4327 93.6611 24.1658C92.4044 24.8989 91.4225 25.9462 90.7156 27.3076C90.0087 28.6429 89.6553 30.2138 89.6553 32.0204C89.6553 33.8269 90.0087 35.4109 90.7156 36.7724C91.4225 38.1076 92.4044 39.1549 93.6611 39.9142C94.944 40.6473 96.4102 41.0138 98.0596 41.0138Z" fill="white"/>
<path d="M128.227 23.7338C130.819 23.7338 132.914 24.5585 134.511 26.208C136.108 27.8313 136.907 30.1091 136.907 33.0415V45.8051H131.408V33.7876C131.408 32.0596 130.976 30.7375 130.112 29.8211C129.248 28.8785 128.07 28.4073 126.578 28.4073C125.059 28.4073 123.855 28.8785 122.965 29.8211C122.101 30.7375 121.669 32.0596 121.669 33.7876V45.8051H116.171V24.048H121.669V26.7578C122.402 25.8153 123.331 25.0822 124.457 24.5585C125.609 24.0087 126.866 23.7338 128.227 23.7338Z" fill="white"/>
<path d="M162.36 34.416C162.36 35.1491 162.308 35.8298 162.203 36.4582H146.298C146.403 38.0553 146.939 39.312 147.908 40.2284C148.877 41.1447 150.081 41.6029 151.521 41.6029C153.563 41.6029 155.016 40.7258 155.88 38.9716H161.811C161.182 41.0662 159.978 42.7942 158.198 44.1556C156.417 45.4909 154.231 46.1585 151.639 46.1585C149.544 46.1585 147.659 45.7004 145.984 44.784C144.334 43.8415 143.038 42.5193 142.096 40.8175C141.179 39.1156 140.721 37.152 140.721 34.9265C140.721 32.6749 141.179 30.6982 142.096 28.9964C143.012 27.2945 144.295 25.9855 145.944 25.0691C147.594 24.1527 149.492 23.6945 151.639 23.6945C153.707 23.6945 155.553 24.1396 157.176 25.0298C158.826 25.92 160.096 27.1767 160.986 28.8C161.902 30.4233 162.36 32.2953 162.36 34.416ZM156.666 33.12C156.64 31.6015 156.129 30.4102 155.134 29.5462C154.166 28.656 152.948 28.2109 151.482 28.2109C150.094 28.2109 148.929 28.656 147.987 29.5462C147.044 30.4102 146.481 31.6015 146.298 33.12H156.666Z" fill="white"/>
<path d="M196.26 18.3927V45.8051H190.762V27.9753L183.418 45.8051H179.255L171.872 27.9753V45.8051H166.374V18.3927H172.618L181.337 38.7753L190.055 18.3927H196.26Z" fill="white"/>
<path d="M200.282 34.848C200.282 32.6487 200.714 30.6982 201.578 28.9964C202.468 27.2945 203.66 25.9855 205.152 25.0691C206.671 24.1527 208.359 23.6945 210.218 23.6945C211.842 23.6945 213.255 24.0218 214.46 24.6764C215.69 25.3309 216.672 26.1556 217.405 27.1505V24.048H222.943V45.8051H217.405V42.624C216.698 43.6451 215.716 44.496 214.46 45.1767C213.229 45.8313 211.802 46.1585 210.179 46.1585C208.346 46.1585 206.671 45.6873 205.152 44.7447C203.66 43.8022 202.468 42.48 201.578 40.7782C200.714 39.0502 200.282 37.0735 200.282 34.848ZM217.405 34.9265C217.405 33.5913 217.143 32.4524 216.62 31.5098C216.096 30.5411 215.389 29.808 214.499 29.3105C213.609 28.7869 212.653 28.5251 211.632 28.5251C210.611 28.5251 209.668 28.7738 208.804 29.2713C207.94 29.7687 207.234 30.5018 206.684 31.4705C206.16 32.4131 205.898 33.5389 205.898 34.848C205.898 36.1571 206.16 37.3091 206.684 38.304C207.234 39.2727 207.94 40.0189 208.804 40.5425C209.695 41.0662 210.637 41.328 211.632 41.328C212.653 41.328 213.609 41.0793 214.499 40.5818C215.389 40.0582 216.096 39.3251 216.62 38.3825C217.143 37.4138 217.405 36.2618 217.405 34.9265Z" fill="white"/>
<path d="M233.811 27.1898C234.518 26.1949 235.486 25.3702 236.717 24.7156C237.974 24.0349 239.401 23.6945 240.998 23.6945C242.857 23.6945 244.532 24.1527 246.025 25.0691C247.543 25.9855 248.734 27.2945 249.598 28.9964C250.489 30.672 250.934 32.6225 250.934 34.848C250.934 37.0735 250.489 39.0502 249.598 40.7782C248.734 42.48 247.543 43.8022 246.025 44.7447C244.532 45.6873 242.857 46.1585 240.998 46.1585C239.401 46.1585 237.987 45.8313 236.756 45.1767C235.552 44.5222 234.57 43.6975 233.811 42.7025V56.1731H228.313V24.048H233.811V27.1898ZM245.318 34.848C245.318 33.5389 245.043 32.4131 244.493 31.4705C243.969 30.5018 243.262 29.7687 242.372 29.2713C241.508 28.7738 240.566 28.5251 239.545 28.5251C238.55 28.5251 237.607 28.7869 236.717 29.3105C235.853 29.808 235.146 30.5411 234.596 31.5098C234.073 32.4785 233.811 33.6175 233.811 34.9265C233.811 36.2356 234.073 37.3745 234.596 38.3433C235.146 39.312 235.853 40.0582 236.717 40.5818C237.607 41.0793 238.55 41.328 239.545 41.328C240.566 41.328 241.508 41.0662 242.372 40.5425C243.262 40.0189 243.969 39.2727 244.493 38.304C245.043 37.3353 245.318 36.1833 245.318 34.848Z" fill="white"/>
<circle cx="32" cy="32" r="32" fill="white"/>
<g opacity="0.6">
<path fill-rule="evenodd" clip-rule="evenodd" d="M14 44C14 45.1046 14.8954 46 16 46C17.1046 46 18 45.1046 18 44C18 42.8954 17.1046 42 16 42C14.8954 42 14 42.8954 14 44ZM16 38C12.6863 38 10 40.6863 10 44C10 47.3137 12.6863 50 16 50C19.3137 50 22 47.3137 22 44C22 40.6863 19.3137 38 16 38Z" fill="#065BC9"/>
<path fill-rule="evenodd" clip-rule="evenodd" d="M43.4084 18.0176C43.1456 18.6254 43 19.2957 43 20C43 20.6488 43.1236 21.2687 43.3485 21.8375C43.123 21.8239 42.8957 21.817 42.6667 21.817C38.5852 21.817 35.0391 24.0046 33.2457 27.218C32.7776 25.7781 32.1037 24.4286 31.2582 23.1994C33.947 20.0279 38.0587 18 42.6667 18C42.9154 18 43.1627 18.0059 43.4084 18.0176ZM26.7543 36.782C25.439 39.1387 23.181 40.9436 20.4605 41.7385C20.8055 42.4176 21 43.1861 21 44C21 44.568 20.9053 45.1138 20.7308 45.6226C23.9368 44.897 26.7355 43.1672 28.7418 40.8006C27.8964 39.5714 27.2224 38.2219 26.7543 36.782ZM30.0006 39.0631C28.7302 36.9918 28.0015 34.581 28 32.0078L28 32.0042L32 32.0042C32 34.5787 31.2716 36.9908 30.0006 39.0631ZM32 31.9958C31.9992 29.4213 31.2704 27.0092 29.9994 24.9369C28.7285 27.0092 28 29.4213 28 31.9958L32 31.9958Z" fill="#065BC9"/>
<path fill-rule="evenodd" clip-rule="evenodd" d="M46 20C46 21.1046 46.8954 22 48 22C49.1046 22 50 21.1046 50 20C50 18.8954 49.1046 18 48 18C46.8954 18 46 18.8954 46 20ZM48 14C44.6863 14 42 16.6863 42 20C42 23.3137 44.6863 26 48 26C51.3137 26 54 23.3137 54 20C54 16.6863 51.3137 14 48 14Z" fill="#065BC9"/>
</g>
<path fill-rule="evenodd" clip-rule="evenodd" d="M14 20C14 21.1046 14.8954 22 16 22C17.1046 22 18 21.1046 18 20C18 18.8954 17.1046 18 16 18C14.8954 18 14 18.8954 14 20ZM16 14C12.6863 14 10 16.6863 10 20C10 23.3137 12.6863 26 16 26C19.3137 26 22 23.3137 22 20C22 16.6863 19.3137 14 16 14Z" fill="#065BC9"/>
<path fill-rule="evenodd" clip-rule="evenodd" d="M28 32C28 27.4152 24.8254 23.5382 20.46 22.2626C20.8053 21.5832 21 20.8144 21 20C21 19.4321 20.9053 18.8863 20.7309 18.3776C27.1928 19.8405 32 25.3844 32 32C32 37.6233 36.7756 42.1818 42.6667 42.1818C42.8958 42.1818 43.1233 42.1749 43.3489 42.1613C43.1237 42.7305 43 43.3508 43 44C43 44.7043 43.1456 45.3746 43.4084 45.9824C43.1627 45.9941 42.9154 46 42.6667 46C34.5665 46 28 39.732 28 32Z" fill="#065BC9"/>
<path fill-rule="evenodd" clip-rule="evenodd" d="M46 44C46 45.1046 46.8954 46 48 46C49.1046 46 50 45.1046 50 44C50 42.8954 49.1046 42 48 42C46.8954 42 46 42.8954 46 44ZM48 38C44.6863 38 42 40.6863 42 44C42 47.3137 44.6863 50 48 50C51.3137 50 54 47.3137 54 44C54 40.6863 51.3137 38 48 38Z" fill="#065BC9"/>
</svg>
